HIERARCHY
ROOT Hips
{
  OFFSET -25.4992 47.4658 0.522821
  CHANNELS 6 Xposition Yposition Zposition Zrotation Xrotation Yrotation
  JOINT Bip01_Pelvis
  {
    OFFSET 0 0 0
    CHANNELS 6 Xposition Yposition Zposition Zrotation Xrotation Yrotation
    JOINT Bip01_Spine
    {
      OFFSET 7.92815 1.03427 -0.957866
      CHANNELS 6 Xposition Yposition Zposition Zrotation Xrotation Yrotation
      JOINT Bip01_Spine1
      {
        OFFSET 14.2482 -0.00839019 0.000894789
        CHANNELS 6 Xposition Yposition Zposition Zrotation Xrotation Yrotation
        JOINT Bip01_Neck
        {
          OFFSET 16.1384 -3.98645 0.000135839
          CHANNELS 6 Xposition Yposition Zposition Zrotation Xrotation Yrotation
          JOINT Bip01_Neck1
          {
            OFFSET 9.69266 -0.00491233 0
            CHANNELS 6 Xposition Yposition Zposition Zrotation Xrotation Yrotation
            JOINT Bip01_Head
            {
              OFFSET 6.2355 0 0
              CHANNELS 6 Xposition Yposition Zposition Zrotation Xrotation Yrotation
              JOINT BN_Mouth_01
              {
                OFFSET 4.58056 2.14338 0
                CHANNELS 6 Xposition Yposition Zposition Zrotation Xrotation Yrotation
                End Site
                {
                  OFFSET 0 0 0
                }
              }
            }
          }
          JOINT Bip01_L_Clavicle
          {
            OFFSET -0.933029 -3.98291 -6.88005
            CHANNELS 6 Xposition Yposition Zposition Zrotation Xrotation Yrotation
            JOINT Bip01_L_UpperArm
            {
              OFFSET 15.6802 0 0
              CHANNELS 6 Xposition Yposition Zposition Zrotation Xrotation Yrotation
              JOINT Bip01_L_Forearm
              {
                OFFSET 15.3149 0 0
                CHANNELS 6 Xposition Yposition Zposition Zrotation Xrotation Yrotation
                JOINT Bip01_L_Hand
                {
                  OFFSET 16.178 0 0
                  CHANNELS 6 Xposition Yposition Zposition Zrotation Xrotation Yrotation
                  JOINT Bip01_L_Finger0
                  {
                    OFFSET 12.9992 0 0
                    CHANNELS 6 Xposition Yposition Zposition Zrotation Xrotation Yrotation
                    End Site
                    {
                      OFFSET 0 0 0
                    }
                  }
                }
              }
              JOINT BN__UpperArm_L_01
              {
                OFFSET 4.92586 2.56729 1.95639
                CHANNELS 6 Xposition Yposition Zposition Zrotation Xrotation Yrotation
                End Site
                {
                  OFFSET 0 0 0
                }
              }
            }
          }
          JOINT Bip01_R_Clavicle
          {
            OFFSET -1.90751 -3.34722 7.0168
            CHANNELS 6 Xposition Yposition Zposition Zrotation Xrotation Yrotation
            JOINT Bip01_R_UpperArm
            {
              OFFSET 15.6801 0 0
              CHANNELS 6 Xposition Yposition Zposition Zrotation Xrotation Yrotation
              JOINT Bip01_R_Forearm
              {
                OFFSET 15.3149 0 0
                CHANNELS 6 Xposition Yposition Zposition Zrotation Xrotation Yrotation
                JOINT Bip01_R_Hand
                {
                  OFFSET 16.1779 0 0
                  CHANNELS 6 Xposition Yposition Zposition Zrotation Xrotation Yrotation
                  JOINT Bip01_R_Finger0
                  {
                    OFFSET 12.9991 0 0
                    CHANNELS 6 Xposition Yposition Zposition Zrotation Xrotation Yrotation
                    End Site
                    {
                      OFFSET 0 0 0
                    }
                  }
                }
              }
              JOINT BN__UpperArm_R_01
              {
                OFFSET 4.92584 2.56728 -1.95638
                CHANNELS 6 Xposition Yposition Zposition Zrotation Xrotation Yrotation
                End Site
                {
                  OFFSET 0 0 0
                }
              }
            }
          }
        }
      }
      JOINT Bip01_L_Thigh
      {
        OFFSET -8.91231 -1.85462 5.82833
        CHANNELS 6 Xposition Yposition Zposition Zrotation Xrotation Yrotation
        JOINT Bip01_L_Calf
        {
          OFFSET 15.7566 0 0
          CHANNELS 6 Xposition Yposition Zposition Zrotation Xrotation Yrotation
          JOINT Bip01_L_HorseLink
          {
            OFFSET 16.2363 0 0
            CHANNELS 6 Xposition Yposition Zposition Zrotation Xrotation Yrotation
            JOINT Bip01_L_Foot
            {
              OFFSET 13.9816 0 0
              CHANNELS 6 Xposition Yposition Zposition Zrotation Xrotation Yrotation
              JOINT Bip01_L_Toe0
              {
                OFFSET 7.68594 5.03696 0
                CHANNELS 6 Xposition Yposition Zposition Zrotation Xrotation Yrotation
                End Site
                {
                  OFFSET 0 0 0
                }
              }
            }
          }
        }
      }
      JOINT Bip01_R_Thigh
      {
        OFFSET -6.80264 -1.57702 -6.62463
        CHANNELS 6 Xposition Yposition Zposition Zrotation Xrotation Yrotation
        JOINT Bip01_R_Calf
        {
          OFFSET 15.7566 0 0
          CHANNELS 6 Xposition Yposition Zposition Zrotation Xrotation Yrotation
          JOINT Bip01_R_HorseLink
          {
            OFFSET 16.2363 0 0
            CHANNELS 6 Xposition Yposition Zposition Zrotation Xrotation Yrotation
            JOINT Bip01_R_Foot
            {
              OFFSET 13.9816 0 0
              CHANNELS 6 Xposition Yposition Zposition Zrotation Xrotation Yrotation
              JOINT Bip01_R_Toe0
              {
                OFFSET 7.68597 5.03696 0
                CHANNELS 6 Xposition Yposition Zposition Zrotation Xrotation Yrotation
                End Site
                {
                  OFFSET 0 0 0
                }
              }
            }
          }
        }
      }
    }
    JOINT BN_Tail_01
    {
      OFFSET -7.9584 -2.82211 0
      CHANNELS 6 Xposition Yposition Zposition Zrotation Xrotation Yrotation
      JOINT BN_Tail_02
      {
        OFFSET 10.9082 0 0.00113176
        CHANNELS 6 Xposition Yposition Zposition Zrotation Xrotation Yrotation
        End Site
        {
          OFFSET 0 0 0
        }
      }
    }
  }
}
MOTION
Frames:	4
Frame Time:	0.0333333
-61.1341 19.1009 -11.8263 -172.587 -37.0464 -102.024 -2.3972e-006 -4.1542e-007 -7.27262e-007 -69.7984 1.57939 -98.4167 7.81095 1.21903 -1.52683 6.70485 -22.9276 4.08498 14.2432 -0.0080751 -0.00157527 -18.337 15.5048 25.8756 16.1388 -3.98942 0.00067306 -3.13836 1.54495 1.85825 9.68977 -0.00462336 -0.000717238 3.78908 -6.10259 21.1097 6.23223 2.72268e-005 4.86654e-005 -2.37848 -7.29773 12.4624 4.57797 2.14211 7.73193e-005 -103.052 0.177821 -179.13 -3.6649 -0.764516 -7.07584 -176.872 -1.73036 -89.2999 15.6715 0.000105178 -0.000159153 -13.6334 -41.972 80.6676 15.3061 0.000348592 -1.17328e-005 -64.9945 0.000193608 0.000540114 16.1657 -0.000123534 -0.000157899 171.7 -63.7417 170.898 12.9883 0.000154541 -4.61813e-005 2.55672 -16.5254 -10.9438 6.09646 3.11976 -5.23543 -126.016 -79.3777 -131.364 -4.11738 -0.388537 6.85096 -177.047 5.74473 100.158 15.6723 0.0001496 -5.19327e-005 -22.0654 31.1068 -68.9725 15.3059 0.00027353 0.000222025 -72.9468 0.000813867 -0.000159062 16.1658 -0.000309955 -7.15215e-006 133.869 72.7546 -100.354 12.9883 0.000118124 -2.99037e-005 6.30223 5.368 19.4569 5.03598 3.8906 -1.75178 53.972 -79.3768 48.6245 -8.38619 -3.32997 6.52496 -55.0569 3.37659 -165.975 15.7506 -1.59729e-005 0.000200752 -128.177 0.000769553 0.000233432 16.2289 4.33077e-005 -6.27965e-005 -172.402 -0.000761679 -0.00013673 13.973 -1.43953e-006 3.88144e-005 -37.8759 16.3926 15.8489 7.6802 5.03324 8.62741e-005 85.0734 -21.1779 5.04319 -7.55716 1.59034 -5.07777 -138.643 -33.5365 179.201 15.7511 4.90459e-005 -1.43827e-005 -92.0928 -4.76601e-005 -7.03836e-005 16.2306 -4.83686e-005 2.18662e-005 111.875 -2.39421e-005 5.93535e-005 13.9768 2.8588e-005 -1.99996e-005 -83.8789 0.602428 2.55843 7.68322 5.03517 -4.42315e-006 87.4809 1.76023 0.711682 -7.95635 -2.82135 2.10203e-006 -3.53754 -11.0964 160.309 10.9052 3.73005e-007 0.00119812 -45.6148 -3.71584 -39.4165 
-61.6875 17.2415 -12.2747 -172.948 -32.2697 -103.125 3.06456e-007 2.45944e-007 4.93145e-006 -70.2377 1.79088 -96.953 7.84393 1.25133 -1.3188 6.5317 -24.8908 1.25994 14.2437 -0.0078969 -0.00144931 -17.7019 15.5026 25.6022 16.14 -3.98974 0.000547595 -5.85906 -0.600051 5.50824 9.69053 -0.00472851 -0.000873297 4.50476 -9.46064 22.1505 6.23285 -2.91476e-005 -3.49978e-005 -0.383383 -8.37625 9.69287 4.57847 2.14236 6.14281e-005 -102.548 0.192708 -179.058 -3.17302 -0.687692 -7.31789 -173.978 -2.20535 -85.5559 15.6724 -0.000329941 -0.000266437 -13.2574 -43.4901 80.159 15.3074 -0.000119775 0.000430001 -65.7544 0.00122648 -0.00126796 16.1678 0.000285399 0.000343958 169.095 -62.7648 169.379 12.9897 -0.000361954 2.09442e-005 2.83175 -16.4766 -11.6709 6.09671 3.11999 -5.23567 -126.022 -79.3754 -131.368 -4.51168 -0.834235 6.55738 -174.361 2.34541 103.818 15.6738 0.000342534 -0.000285441 -18.43 31.8813 -72.3572 15.3077 -0.000227344 0.000377454 -73.3568 0.00136162 -0.000439947 16.1683 2.62237e-005 0.00010269 125.826 71.7182 -91.9785 12.9905 0.000162638 0.00023755 6.46858 6.96619 20.2481 5.03642 3.89099 -1.7519 53.9654 -79.3771 48.6187 -8.08209 -3.53139 6.60149 -54.3879 1.95603 -167.5 15.7506 8.18542e-005 -4.16051e-006 -130.116 0.000406476 -0.000503644 16.2307 0.00041077 0.000137744 -170.48 -2.69671e-005 0.000550701 13.9751 0.00029253 -0.00013402 -36.5467 19.0274 15.4514 7.68109 5.03396 -0.000146755 83.3219 -33.5347 2.18255 -7.83074 1.7848 -4.8529 -138.853 -35.1528 179.847 15.7521 -0.000134147 -0.000159219 -93.8547 -0.000629516 0.000573652 16.2315 0.000133388 -0.00015989 112.243 0.000786459 0.000378206 13.9764 -0.000152955 -9.08634e-005 -81.9077 2.04103 9.6358 7.68314 5.0351 -8.12621e-005 86.4449 -9.35238 0.673287 -7.9566 -2.82159 -1.79259e-005 -3.81057 -10.752 161.875 10.9055 -0.00017461 0.00121992 -44.479 -3.75578 -40.4815 
-62.2391 15.3828 -12.7339 -173.198 -27.5474 -104.072 1.30358e-007 -4.58943e-007 1.09354e-006 -70.9937 1.99163 -95.4921 7.87355 1.28431 -1.10404 6.06556 -26.654 -1.67514 14.247 -0.00810595 -0.00148664 -16.9452 15.3387 25.0222 16.1437 -3.99061 0.000650172 -8.37137 -2.86409 9.07462 9.69373 -0.00480109 -0.000446465 5.37363 -12.6977 23.1291 6.2355 -6.92312e-006 -1.20727e-006 1.41702 -9.42361 6.5246 4.58058 2.14338 -9.4563e-007 -102.041 0.21002 -178.989 -2.67111 -0.579932 -7.52768 -171.152 -2.51428 -81.7416 15.6801 4.45534e-006 2.25341e-006 -12.9563 -44.8905 79.5681 15.3149 -2.73818e-006 -1.8615e-006 -66.6466 -1.95322e-005 -3.8481e-005 16.1779 -3.64325e-006 -3.36626e-006 166.852 -61.8776 168.157 12.9992 5.36614e-006 -8.64979e-007 3.11153 -16.4378 -12.3997 6.09987 3.12147 -5.23854 -126.021 -79.3773 -131.367 -4.86813 -1.27732 6.22598 -171.431 -0.785493 107.545 15.6801 -2.50157e-006 2.21531e-006 -14.8521 32.3217 -75.8198 15.3149 6.79321e-006 2.42717e-006 -73.8568 2.57392e-005 -6.44399e-005 16.1779 -3.82361e-006 6.2873e-006 119.456 70.3537 -85.2778 12.9992 4.82805e-006 -3.48222e-006 6.61173 8.57022 21.0446 5.03888 3.89273 -1.75287 53.9725 -79.3763 48.626 -7.7738 -3.72665 6.66262 -56.3372 -0.0500003 -169.102 15.7566 -3.78706e-006 -2.01589e-006 -132.387 -8.53387e-006 -1.73874e-005 16.2363 1.09833e-006 8.34651e-007 -171.09 2.16034e-005 2.04919e-005 13.9816 -4.34177e-007 -1.60919e-006 -35.548 21.3266 14.7403 7.68592 5.03695 5.99383e-006 81.3682 -45.5508 -0.575583 -8.10379 1.94075 -4.62349 -139.055 -36.6601 -179.643 15.7566 9.00552e-007 -5.44782e-007 -95.8088 -8.91e-006 1.01393e-005 16.2363 4.2621e-006 8.2667e-007 112.59 -3.53592e-005 2.63896e-005 13.9816 -2.00417e-006 -3.05647e-006 -79.9902 3.38432 16.6424 7.68596 5.03695 -3.87058e-006 85.3471 -20.4668 0.419536 -7.95841 -2.8221 -1.73953e-007 -4.15332 -10.4105 163.484 10.9082 2.67776e-006 0.00121391 -43.3432 -3.81608 -41.5479 
-62.7706 13.6153 -13.205 -173.36 -23.0252 -104.876 -8.15824e-007 4.62462e-007 2.49794e-006 -72.116 2.17234 -94.0713 7.8952 1.31628 -0.888139 5.33882 -28.035 -4.56129 14.2465 -0.00818305 -0.00139108 -16.0738 14.9485 24.0778 16.1425 -3.99027 0.000688795 -10.4991 -5.00724 12.3477 9.69236 -0.00487555 -0.000160407 6.23874 -15.6137 23.9514 6.23452 -2.32994e-005 -1.96691e-005 2.98966 -10.3055 3.15748 4.57943 2.14281 -2.83504e-005 -101.536 0.227132 -178.918 -2.194 -0.457883 -7.68733 -168.686 -2.68964 -78.1469 15.6765 -0.000103384 7.19463e-005 -12.717 -46.1437 78.9758 15.3112 4.34631e-005 6.09877e-007 -67.57 -0.000191586 -0.000595769 16.1736 3.45381e-005 0.000140251 165.043 -61.1996 167.216 12.9947 -0.000180182 -0.000130186 3.38907 -16.4003 -13.1281 6.09842 3.12075 -5.2373 -126.023 -79.3771 -131.369 -5.16456 -1.67559 5.88174 -168.498 -3.38443 111.089 15.6764 5.9297e-005 7.5405e-005 -11.6006 32.3613 -79.1056 15.31 4.71026e-005 1.8153e-005 -74.4797 3.28352e-005 -0.000368378 16.1718 -2.25482e-005 8.84915e-005 113.994 68.7708 -79.4826 12.9933 -3.0624e-005 -7.99691e-005 6.94328 10.198 21.4483 5.03728 3.89149 -1.75231 53.9742 -79.3767 48.6277 -7.47404 -3.89455 6.70409 -61.0917 -2.47987 -170.195 15.7544 1.35136e-005 -5.21647e-006 -134.702 0.000170007 -0.00021374 16.2337 -9.8879e-005 6.04549e-005 -174.628 -0.000147303 0.000224468 13.9791 -9.05523e-005 -5.66745e-005 -34.6339 22.5792 13.0616 7.68398 5.03561 -9.95407e-006 79.2114 -55.4808 -3.23046 -8.36068 2.04347 -4.41109 -139.305 -37.931 -179.375 15.7551 -5.4981e-005 -5.47328e-005 -97.885 -0.000165215 -0.00012354 16.2343 7.48179e-005 3.12016e-005 112.817 -6.80675e-005 0.000228153 13.9786 -1.41278e-005 -5.57151e-005 -78.2233 4.4205 23.0693 7.68413 5.03569 -1.36425e-005 84.2134 -30.4875 -0.0407916 -7.95812 -2.82199 -4.77151e-005 -4.56506 -10.0726 165.136 10.9073 3.90341e-005 0.00125827 -42.2091 -3.89766 -42.6119 
